<?xml version="1.0" encoding="utf-8"?>
<!-- Generator: Adobe Illustrator 16.2.1, SVG Export Plug-In . SVG Version: 6.00 Build 0)  -->
<!DOCTYPE svg PUBLIC "-//W3C//DTD SVG 1.1//EN" "http://www.w3.org/Graphics/SVG/1.1/DTD/svg11.dtd">
<svg version="1.1" id="Layer_1" xmlns="http://www.w3.org/2000/svg" xmlns:xlink="http://www.w3.org/1999/xlink" x="0px" y="0px"
	 width="500px" height="500px" viewBox="0 0 500 500" enable-background="new 0 0 500 500" xml:space="preserve">
<g>
	<path fill="#15A8DB" d="M107.488,183.491c0,19.564,7.525,26.014,27.95,26.014c16.339,0,30.529-2.795,34.829-3.655
		c2.365-0.43,3.225,0.86,3.225,3.225v12.47c0,1.72-0.86,2.795-2.58,3.225c-7.31,1.72-26.015,3.87-40.419,3.87
		c-39.344,0-48.589-15.695-48.589-45.365v-24.08c0-27.305,11.395-42.354,50.739-42.354c2.15,0,4.729,0,7.525,0.215
		c-4.3-3.87-6.88-9.89-6.88-19.565c0-25.584,18.705-35.474,46.224-35.474c31.819,0,52.244,12.04,52.244,53.319v12.255
		c9.675-5.16,24.509-10.75,41.064-10.75c15.265,0,28.38,4.73,28.38,30.529v55.254c0,6.235,1.935,7.74,5.805,7.74
		c1.505,0,2.365,0,4.729-0.43c1.936-0.215,2.795,0,2.795,2.58v11.395c0,1.72-0.645,2.365-2.364,3.01
		c-2.58,0.86-8.385,1.505-15.479,1.505c-18.061,0-21.285-10.319-21.285-22.789v-53.104c0-12.685-6.45-15.479-14.189-15.479
		c-8.17,0-18.705,3.01-29.455,8.17v56.974c0,4.73,0.645,6.45,5.805,6.88l6.02,0.43c1.935,0.215,2.15,0.86,2.15,2.58v12.04
		c0,1.505-0.645,2.365-2.365,2.365h-49.449c-1.72,0-2.58-0.645-2.58-2.365v-12.04c0-1.72,0.645-2.15,2.15-2.365l6.235-0.645
		c4.73-0.645,5.59-1.935,5.59-6.665v-85.568c0-25.8-8.385-35.689-27.305-35.689c-15.694,0-22.79,7.74-22.79,20.424
		c0,9.245,3.655,14.62,10.535,17.415l2.795,0.43c2.365,0.645,2.365,1.72,2.365,3.225l-1.72,30.529
		c-0.215,2.365-1.29,2.795-3.225,2.795h-10.105c-1.72,0-2.365-0.86-2.795-2.795l-3.225-16.77c-4.73-0.645-11.61-1.075-18.275-1.075
		c-17.63,0-24.08,10.535-24.08,23.649V183.491z"/>
	<path fill="#15A8DB" d="M417.021,202.625c0,6.235,1.935,7.74,5.59,7.74c1.505,0,2.365,0,4.945-0.43c1.72-0.215,2.795,0,2.795,2.58
		v11.395c0,1.72-0.646,2.365-2.365,3.01c-2.795,0.86-8.385,1.505-15.479,1.505c-9.46,0-14.835-2.794-17.845-7.31
		c-7.311,3.655-19.78,7.525-35.26,7.525c-32.249,0-36.765-14.62-36.765-30.96v-4.3c0-16.985,4.945-31.39,40.85-31.39
		c11.395,0,21.5,0.645,27.734,1.29v-10.965c0-13.975-3.654-18.06-20.209-18.06c-7.311,0-15.695,0.215-20.855,1.075l-3.439,15.91
		c-0.43,2.365-0.86,3.01-2.795,3.01h-10.965c-1.935,0-2.58-0.645-2.795-3.01l-1.505-26.015c-0.215-3.655-0.431-4.945,2.149-5.805
		c4.301-1.29,24.51-2.58,40.42-2.58c28.595,0,45.794,3.655,45.794,35.904V202.625z M348.437,197.896c0,10.32,6.021,12.9,17.415,12.9
		c8.814,0,15.694-1.72,25.369-5.805v-24.295c-9.46-0.43-16.34-0.645-24.51-0.645c-13.114,0-18.274,4.085-18.274,13.115V197.896z"/>
	<path fill="#535456" d="M187.156,402.626c0,6.234,1.935,7.739,5.805,7.739c1.505,0,2.365,0,4.73-0.43
		c1.935-0.215,2.795,0,2.795,2.58v11.395c0,1.72-0.645,2.365-2.365,3.01c-2.58,0.86-8.385,1.505-15.479,1.505
		c-9.245,0-14.62-2.579-17.63-6.88c-7.095,3.44-20.425,7.096-35.474,7.096c-31.175,0-40.419-13.33-40.419-42.354v-26.875
		c0-29.239,9.245-42.569,40.419-42.569c13.115,0,24.939,3.44,31.819,6.235v-33.97c0-5.805-0.86-6.45-5.59-7.095l-4.3-0.645
		c-2.365-0.431-2.795-1.075-2.795-3.44v-8.814c0-2.15,0.645-2.795,2.795-3.011l16.77-2.795c6.235-1.074,10.32-1.72,13.545-1.72
		c4.084,0,5.375,2.365,5.375,5.16V402.626z M161.356,340.922c-6.02-2.795-13.545-5.375-23.435-5.375
		c-15.695,0-22.575,3.87-22.575,23.649v27.305c0,18.274,6.88,23.435,22.575,23.435c9.03,0,17.415-2.58,23.435-5.16V340.922z"/>
	<path fill="#535456" d="M231.252,382.846v0.646c0,17.63,2.795,26.015,29.884,26.015c16.34,0,29.239-2.365,38.27-3.87
		c3.655-0.646,4.3-0.215,4.3,3.01v11.609c0,3.655-0.645,4.085-4.085,4.516c-6.449,1.29-25.8,3.87-44.074,3.87
		c-39.559,0-49.879-12.686-49.879-45.364v-23.005c0-36.765,19.35-43.43,50.739-43.43c30.314,0,45.794,5.806,45.794,33.54
		c0,27.949-14.62,32.464-48.805,32.464H231.252z M231.252,365.861h21.285c20.854,0,24.295-2.58,24.295-14.62
		c0-11.824-4.085-16.984-21.5-16.984c-18.49,0-24.08,5.375-24.08,25.154V365.861z"/>
	<path fill="#535456" d="M379.921,423.91c-0.859,1.936-1.505,2.58-3.225,2.58h-19.135c-1.72,0-2.58-0.645-3.225-2.58l-32.68-81.698
		c-1.72-4.085-2.58-4.945-5.375-5.375l-5.805-0.646c-1.29-0.215-1.72-1.29-1.72-2.58v-12.47c0-1.29,0.645-2.149,1.935-2.149h45.149
		c1.935,0,2.149,0.645,2.149,2.149v12.04c0,1.29-0.645,2.15-1.935,2.15l-3.655,0.645c-4.944,0.431-5.375,1.075-3.439,6.235
		l21.93,57.834l22.359-57.404c1.935-5.375,1.29-5.805-3.655-6.234l-3.869-0.646c-1.29,0-1.721-0.86-1.721-2.15v-11.824
		c0-2.365,0.215-2.795,2.58-2.795h36.979c1.505,0,2.15,0.859,2.15,2.149v12.47c0,1.29-0.646,2.365-1.936,2.58l-5.805,0.646
		c-3.01,0.43-3.655,1.29-4.945,4.515L379.921,423.91z"/>
</g>
<g>
</g>
<g>
</g>
<g>
</g>
<g>
</g>
<g>
</g>
<g>
</g>
</svg>
